<mxfile host="app.diagrams.net" modified="2024-01-11T03:54:20.248Z" agent="Mozilla/5.0 (Windows NT 10.0; Win64; x64) AppleWebKit/537.36 (KHTML, like Gecko) Chrome/120.0.0.0 Safari/537.36" version="22.1.18" etag="nCzsGb3PD-d3eIGBFZlG" type="github">
  <diagram name="Page-1" id="RupyXXzvp5vB3kKgfpV3">
    <mxGraphModel>
      <root>
        <mxCell id="0" />
        <mxCell id="1" parent="0" />
      </root>
    </mxGraphModel>
  </diagram>
</mxfile>
